<svg xmlns="http://www.w3.org/2000/svg" viewBox="0 0 64 64"><g data-name="10-Argentina"><path fill="#74acdf" d="M63,5V21H1V5A4,4,0,0,1,5,1H59A4,4,0,0,1,63,5Z"/><rect width="62" height="22" x="1" y="21" fill="#e9edf5"/><path fill="#74acdf" d="M63,43V59a4,4,0,0,1-4,4H5a4,4,0,0,1-4-4V43Z"/><path fill="#508dc4" d="M1 17v4h.37A22.058 22.058 0 0 1 1 17zM63 21V17a22.058 22.058 0 0 1-.37 4z"/><path fill="#dce1eb" d="M41,39H23A22,22,0,0,1,1.37,21H1V43H63V21h-.37A22,22,0,0,1,41,39Z"/><path fill="#74acdf" d="M1,59a4,4,0,0,0,4,4H59a4,4,0,0,0,4-4V43H1Z"/><path fill="#508dc4" d="M59,59H5a4,4,0,0,1-4-4v4a4,4,0,0,0,4,4H59a4,4,0,0,0,4-4V55A4,4,0,0,1,59,59Z"/><path fill="#82c1fa" d="M59,1H5A4,4,0,0,0,1,5V9A4,4,0,0,1,5,5H59a4,4,0,0,1,4,4V5A4,4,0,0,0,59,1Z"/><path fill="#f6b40e" d="M35.874,31A4,4,0,1,1,32,28a4.026,4.026,0,0,1,3.874,3"/><rect width="62" height="62" x="1" y="1" fill="none" stroke="#000" stroke-linejoin="round" stroke-width="2" rx="4"/><line x1="56" x2="1" y1="21" y2="21" fill="none" stroke="#000" stroke-linejoin="round" stroke-width="2"/><line x1="63" x2="58" y1="21" y2="21" fill="none" stroke="#000" stroke-linejoin="round" stroke-width="2"/><line x1="8" x2="63" y1="43" y2="43" fill="none" stroke="#000" stroke-linejoin="round" stroke-width="2"/><line x1="1" x2="6" y1="43" y2="43" fill="none" stroke="#000" stroke-linejoin="round" stroke-width="2"/><path fill="none" stroke="#000" stroke-linejoin="round" stroke-width="2" d="M35.874,31A4,4,0,1,1,32,28a4.026,4.026,0,0,1,3.874,3"/><line x1="32" x2="32" y1="36" y2="40" fill="none" stroke="#000" stroke-linejoin="round" stroke-width="2"/><line x1="32" x2="32" y1="24" y2="28" fill="none" stroke="#000" stroke-linejoin="round" stroke-width="2"/><line x1="28" x2="24" y1="32" y2="32" fill="none" stroke="#000" stroke-linejoin="round" stroke-width="2"/><line x1="40" x2="36" y1="32" y2="32" fill="none" stroke="#000" stroke-linejoin="round" stroke-width="2"/><line x1="29" x2="26" y1="35" y2="38" fill="none" stroke="#000" stroke-linejoin="round" stroke-width="2"/><line x1="38" x2="35" y1="26" y2="29" fill="none" stroke="#000" stroke-linejoin="round" stroke-width="2"/><line x1="29" x2="26" y1="29" y2="26" fill="none" stroke="#000" stroke-linejoin="round" stroke-width="2"/><line x1="38" x2="34.999" y1="38" y2="34.999" fill="none" stroke="#000" stroke-linejoin="round" stroke-width="2"/></g></svg>